<?xml version="1.0" encoding="utf-8"?>
<!-- Generator: Adobe Illustrator 24.0.2, SVG Export Plug-In . SVG Version: 6.00 Build 0)  -->
<svg version="1.0" id="Layer_1" xmlns="http://www.w3.org/2000/svg" xmlns:xlink="http://www.w3.org/1999/xlink" x="0px" y="0px"
	 viewBox="0 0 300 280" enable-background="new 0 0 300 280" xml:space="preserve">
<g>
	<g>
		<path fill-rule="evenodd" clip-rule="evenodd" fill="#F8991D" d="M176.07,158.41c-12.58,9.28-30.82,14.22-46.53,14.22
			c-22.01,0-41.84-8.14-56.84-21.68c-1.18-1.06-0.13-2.52,1.29-1.69c16.18,9.42,36.2,15.09,56.87,15.09
			c13.94,0,29.27-2.89,43.38-8.88C176.37,154.56,178.15,156.87,176.07,158.41z"/>
		<path fill-rule="evenodd" clip-rule="evenodd" fill="#F8991D" d="M181.3,152.43c-1.61-2.06-10.64-0.98-14.69-0.49
			c-1.23,0.15-1.42-0.92-0.31-1.7c7.2-5.06,19-3.6,20.37-1.9c1.38,1.71-0.36,13.54-7.11,19.19c-1.04,0.87-2.03,0.41-1.57-0.74
			C179.51,162.98,182.91,154.49,181.3,152.43z"/>
	</g>
	<path fill-rule="evenodd" clip-rule="evenodd" fill="#010101" d="M166.9,114.5v-4.92c0-0.75,0.57-1.25,1.25-1.25l22.03,0
		c0.7,0,1.27,0.51,1.27,1.24l0,4.22c-0.01,0.71-0.6,1.63-1.66,3.09l-11.41,16.29c4.24-0.1,8.72,0.53,12.57,2.7
		c0.87,0.49,1.1,1.21,1.17,1.92v5.24c0,0.72-0.79,1.56-1.62,1.12c-6.78-3.55-15.78-3.94-23.28,0.04c-0.77,0.41-1.57-0.42-1.57-1.14
		v-4.99c0-0.8,0.01-2.16,0.82-3.38l13.22-18.97l-11.51,0C167.47,115.74,166.9,115.24,166.9,114.5z"/>
	<path fill-rule="evenodd" clip-rule="evenodd" fill="#010101" d="M86.54,145.2h-6.7c-0.64-0.04-1.15-0.52-1.2-1.13l0-34.4
		c0-0.69,0.58-1.24,1.29-1.24l6.24,0c0.65,0.03,1.18,0.53,1.22,1.16v4.49h0.13c1.63-4.34,4.69-6.37,8.82-6.37
		c4.19,0,6.82,2.03,8.7,6.37c1.63-4.34,5.32-6.37,9.26-6.37c2.82,0,5.88,1.16,7.76,3.76c2.13,2.9,1.69,7.09,1.69,10.79l-0.01,21.71
		c0,0.69-0.58,1.24-1.29,1.24h-6.69c-0.67-0.04-1.2-0.58-1.2-1.24l0-18.24c0-1.45,0.13-5.07-0.19-6.44c-0.5-2.32-2-2.97-3.94-2.97
		c-1.63,0-3.32,1.09-4,2.82c-0.69,1.74-0.63,4.63-0.63,6.59v18.23c0,0.69-0.58,1.24-1.29,1.24H97.8c-0.67-0.04-1.2-0.58-1.2-1.24
		l-0.01-18.24c0-3.84,0.63-9.48-4.13-9.48c-4.82,0-4.63,5.5-4.63,9.48l0,18.23C87.83,144.65,87.25,145.2,86.54,145.2z"/>
	<path fill-rule="evenodd" clip-rule="evenodd" fill="#010101" d="M210.41,107.7c9.95,0,15.33,8.54,15.33,19.4
		c0,10.5-5.94,18.82-15.33,18.82c-9.76,0-15.08-8.54-15.08-19.18C195.33,116.03,200.71,107.7,210.41,107.7z M210.47,114.73
		c-4.94,0-5.26,6.73-5.26,10.93c0,4.2-0.06,13.17,5.19,13.17c5.19,0,5.44-7.24,5.44-11.65c0-2.9-0.12-6.37-1-9.12
		C214.1,115.67,212.6,114.73,210.47,114.73z"/>
	<path fill-rule="evenodd" clip-rule="evenodd" fill="#010101" d="M238.63,145.2h-6.68c-0.67-0.04-1.2-0.58-1.2-1.24l-0.01-34.41
		c0.06-0.63,0.61-1.12,1.29-1.12l6.22,0c0.58,0.03,1.07,0.43,1.19,0.96v5.26h0.13c1.88-4.71,4.5-6.95,9.13-6.95
		c3,0,5.94,1.09,7.82,4.05c1.75,2.75,1.75,7.38,1.75,10.71v21.64c-0.08,0.61-0.62,1.08-1.28,1.08h-6.72
		c-0.62-0.04-1.12-0.5-1.19-1.08v-18.68c0-3.76,0.44-9.27-4.19-9.27c-1.63,0-3.13,1.09-3.88,2.75c-0.94,2.1-1.06,4.2-1.06,6.51
		v18.52C239.93,144.65,239.35,145.2,238.63,145.2z"/>
	<path fill-rule="evenodd" clip-rule="evenodd" fill="#010101" d="M149.34,128.77c0,2.61,0.06,4.79-1.25,7.11
		c-1.07,1.89-2.76,3.05-4.64,3.05c-2.57,0-4.08-1.96-4.08-4.86c0-5.71,5.12-6.75,9.97-6.75V128.77z M156.09,145.11
		c-0.44,0.4-1.08,0.42-1.58,0.16c-2.23-1.85-2.62-2.71-3.84-4.47c-3.68,3.75-6.29,4.87-11.05,4.87c-5.64,0-10.03-3.48-10.03-10.45
		c0-5.44,2.95-9.14,7.15-10.95c3.64-1.6,8.72-1.89,12.6-2.32v-0.87c0-1.6,0.13-3.48-0.82-4.86c-0.82-1.23-2.38-1.74-3.76-1.74
		c-2.56,0-4.83,1.31-5.39,4.02c-0.12,0.6-0.56,1.2-1.16,1.23l-6.5-0.7c-0.55-0.12-1.16-0.56-1-1.4c1.49-7.88,8.61-10.26,14.99-10.26
		c3.26,0,7.52,0.87,10.09,3.34c3.26,3.05,2.95,7.11,2.95,11.53v10.44c0,3.14,1.31,4.52,2.53,6.21c0.43,0.61,0.52,1.33-0.02,1.78
		c-1.37,1.15-3.8,3.26-5.14,4.45L156.09,145.11z"/>
	<path fill-rule="evenodd" clip-rule="evenodd" fill="#010101" d="M61.48,128.77c0,2.61,0.06,4.79-1.25,7.11
		c-1.07,1.89-2.76,3.05-4.64,3.05c-2.57,0-4.08-1.96-4.08-4.86c0-5.71,5.12-6.75,9.97-6.75V128.77z M68.23,145.11
		c-0.44,0.4-1.08,0.42-1.58,0.16c-2.23-1.85-2.63-2.71-3.84-4.47c-3.68,3.75-6.28,4.87-11.05,4.87c-5.64,0-10.03-3.48-10.03-10.45
		c0-5.44,2.95-9.14,7.15-10.95c3.64-1.6,8.72-1.89,12.6-2.32v-0.87c0-1.6,0.13-3.48-0.81-4.86c-0.82-1.23-2.38-1.74-3.76-1.74
		c-2.56,0-4.83,1.31-5.39,4.02c-0.12,0.6-0.56,1.2-1.16,1.23l-6.5-0.7c-0.55-0.12-1.16-0.56-1-1.4c1.49-7.88,8.61-10.26,14.99-10.26
		c3.26,0,7.52,0.87,10.09,3.34c3.26,3.05,2.95,7.11,2.95,11.53v10.44c0,3.14,1.3,4.52,2.53,6.21c0.43,0.61,0.52,1.33-0.02,1.78
		c-1.37,1.15-3.8,3.26-5.14,4.45L68.23,145.11z"/>
</g>
</svg>
