<?xml version="1.0" encoding="UTF-8" standalone="no"?>
<!-- Created with Inkscape (http://www.inkscape.org/) -->

<svg
   version="1.1"
   id="svg7146"
   xml:space="preserve"
   width="682.66669"
   height="682.66669"
   viewBox="0 0 682.66669 682.66669"
   xmlns="http://www.w3.org/2000/svg"
   xmlns:svg="http://www.w3.org/2000/svg"><defs
     id="defs7150"><clipPath
       clipPathUnits="userSpaceOnUse"
       id="clipPath7160"><path
         d="M 0,512 H 512 V 0 H 0 Z"
         id="path7158" /></clipPath></defs><g
     id="g7152"
     transform="matrix(1.3333333,0,0,-1.3333333,0,682.66667)"><g
       id="g7154"><g
         id="g7156"
         clip-path="url(#clipPath7160)"><g
           id="g7162"
           transform="translate(7.5,218.083)"><path
             d="m 0,0 v -182.286 c 0,-2.384 1.932,-4.316 4.315,-4.316 h 142.143 c 2.383,0 4.315,1.932 4.315,4.316 V 0 c 0,2.383 -1.932,4.314 -4.315,4.314 H 4.315 C 1.932,4.314 0,2.383 0,0"
             style="fill:#bed9fd;fill-opacity:1;fill-rule:nonzero;stroke:none"
             id="path7164" /></g><g
           id="g7166"
           transform="translate(153.9585,222.3975)"><path
             d="m 0,0 h -27.552 c 2.383,0 4.315,-1.932 4.315,-4.314 v -182.287 c 0,-2.382 -1.932,-4.315 -4.315,-4.315 H 0 c 2.383,0 4.315,1.933 4.315,4.315 V -4.314 C 4.315,-1.932 2.383,0 0,0"
             style="fill:#9ec8fc;fill-opacity:1;fill-rule:nonzero;stroke:none"
             id="path7168" /></g><g
           id="g7170"
           transform="translate(54.3135,75.2178)"><path
             d="M 0,0 H 57.146"
             style="fill:none;stroke:#000000;stroke-width:15;stroke-linecap:round;stroke-linejoin:round;stroke-miterlimit:10;stroke-dasharray:none;stroke-opacity:1"
             id="path7172" /></g><g
           id="g7174"
           transform="translate(54.3135,126.9395)"><path
             d="M 0,0 H 57.146"
             style="fill:none;stroke:#000000;stroke-width:15;stroke-linecap:round;stroke-linejoin:round;stroke-miterlimit:10;stroke-dasharray:none;stroke-opacity:1"
             id="path7176" /></g><g
           id="g7178"
           transform="translate(54.3135,178.6611)"><path
             d="M 0,0 H 57.146"
             style="fill:none;stroke:#000000;stroke-width:15;stroke-linecap:round;stroke-linejoin:round;stroke-miterlimit:10;stroke-dasharray:none;stroke-opacity:1"
             id="path7180" /></g><g
           id="g7182"
           transform="translate(7.5,218.083)"><path
             d="m 0,0 v -182.286 c 0,-2.384 1.932,-4.316 4.315,-4.316 h 142.143 c 2.383,0 4.315,1.932 4.315,4.316 V 0 c 0,2.383 -1.932,4.314 -4.315,4.314 H 4.315 C 1.932,4.314 0,2.383 0,0 Z"
             style="fill:none;stroke:#000000;stroke-width:15;stroke-linecap:round;stroke-linejoin:round;stroke-miterlimit:10;stroke-dasharray:none;stroke-opacity:1"
             id="path7184" /></g><g
           id="g7186"
           transform="translate(43.7456,222.3975)"><path
             d="m 0,0 v 41.504 c 0,2.979 2.415,5.393 5.394,5.393 h 67.495 c 2.978,0 5.393,-2.414 5.393,-5.393 L 78.282,0 Z"
             style="fill:#9ec8fc;fill-opacity:1;fill-rule:nonzero;stroke:none"
             id="path7188" /></g><g
           id="g7190"
           transform="translate(116.6343,269.2949)"><path
             d="m 0,0 h -27.552 c 2.979,0 5.394,-2.414 5.394,-5.393 V -46.897 H 5.394 V -5.394 C 5.394,-2.415 2.979,0 0,0"
             style="fill:#80b6fc;fill-opacity:1;fill-rule:nonzero;stroke:none"
             id="path7192" /></g><g
           id="g7194"
           transform="translate(43.7456,222.3975)"><path
             d="m 0,0 v 41.504 c 0,2.979 2.415,5.393 5.394,5.393 h 67.495 c 2.978,0 5.393,-2.414 5.393,-5.393 L 78.282,0 Z"
             style="fill:none;stroke:#000000;stroke-width:15;stroke-linecap:round;stroke-linejoin:round;stroke-miterlimit:10;stroke-dasharray:none;stroke-opacity:1"
             id="path7196" /></g><g
           id="g7198"
           transform="translate(501.2217,198.5596)"><path
             d="m 0,0 h -210.449 c -1.811,0 -3.279,1.468 -3.279,3.278 v 163.373 c 0,1.811 1.468,3.279 3.279,3.279 L 0,169.93 c 1.811,0 3.278,-1.468 3.278,-3.279 V 3.278 C 3.278,1.468 1.811,0 0,0"
             style="fill:#ddebfd;fill-opacity:1;fill-rule:nonzero;stroke:none"
             id="path7200" /></g><g
           id="g7202"
           transform="translate(501.2222,218.6152)"><path
             d="m 0,0 h -210.45 c -1.81,0 -3.278,1.469 -3.278,3.279 v -20.056 c 0,-1.811 1.468,-3.279 3.278,-3.279 H 0 c 1.81,0 3.278,1.468 3.278,3.279 V 3.279 C 3.278,1.469 1.81,0 0,0"
             style="fill:#bed9fd;fill-opacity:1;fill-rule:nonzero;stroke:none"
             id="path7204" /></g><g
           id="g7206"
           transform="translate(501.2217,198.5596)"><path
             d="m 0,0 h -210.449 c -1.811,0 -3.279,1.468 -3.279,3.278 v 163.373 c 0,1.811 1.468,3.279 3.279,3.279 L 0,169.93 c 1.811,0 3.278,-1.468 3.278,-3.279 V 3.278 C 3.278,1.468 1.811,0 0,0 Z"
             style="fill:none;stroke:#000000;stroke-width:15;stroke-linecap:round;stroke-linejoin:round;stroke-miterlimit:10;stroke-dasharray:none;stroke-opacity:1"
             id="path7208" /></g><g
           id="g7210"
           transform="translate(365.7856,241.8535)"><path
             d="M 0,0 V 11.222"
             style="fill:none;stroke:#000000;stroke-width:15;stroke-linecap:round;stroke-linejoin:round;stroke-miterlimit:10;stroke-dasharray:none;stroke-opacity:1"
             id="path7212" /></g><g
           id="g7214"
           transform="translate(399.2754,241.8535)"><path
             d="M 0,0 V 28.705"
             style="fill:none;stroke:#000000;stroke-width:15;stroke-linecap:round;stroke-linejoin:round;stroke-miterlimit:10;stroke-dasharray:none;stroke-opacity:1"
             id="path7216" /></g><g
           id="g7218"
           transform="translate(432.7651,241.8535)"><path
             d="M 0,0 V 47.281"
             style="fill:none;stroke:#000000;stroke-width:15;stroke-linecap:round;stroke-linejoin:round;stroke-miterlimit:10;stroke-dasharray:none;stroke-opacity:1"
             id="path7220" /></g><g
           id="g7222"
           transform="translate(432.7651,325.1953)"><path
             d="M 0,0 -66.979,-36.061"
             style="fill:none;stroke:#000000;stroke-width:15;stroke-linecap:round;stroke-linejoin:round;stroke-miterlimit:10;stroke-dasharray:none;stroke-opacity:1"
             id="path7224" /></g><g
           id="g7226"
           transform="translate(377.9375,196.9326)"><path
             d="m 0,0 -20.902,-71.805 -51.088,47.171 c -2.484,2.293 -5.739,3.65 -9.119,3.654 h -123.334 c -15.017,0 -27.191,-12.093 -27.191,-27.111 v -112.106 c 0,-2.902 2.352,-5.254 5.253,-5.254 h 145.275 c 2.901,0 5.253,2.352 5.253,5.254 v 89.737 l 46.226,-42.679 c 12.494,-11.535 32.76,-5.905 37.513,10.422 L 34.84,-10.143 C 37.641,-0.521 32.112,9.549 22.491,12.349 12.871,15.148 2.8,9.62 0,0"
             style="fill:#e27c48;fill-opacity:1;fill-rule:nonzero;stroke:none"
             id="path7228" /></g><g
           id="g7230"
           transform="translate(302.085,80.0264)"><path
             d="M 0,0 V 46.446 L 46.226,3.768 C 58.72,-7.768 78.985,-2.138 83.739,14.189 l 26.954,92.575 c 2.801,9.621 -2.728,19.691 -12.349,22.491 -9.621,2.8 -19.691,-2.729 -22.491,-12.349 L 54.95,45.102 3.862,92.272 c -2.483,2.293 -5.738,3.65 -9.119,3.654 h -123.334 c -15.017,0 -27.191,-12.093 -27.191,-27.111 V -43.291 c 0,-2.901 2.352,-5.254 5.254,-5.254 H -5.253 c 2.901,0 5.253,2.353 5.253,5.254 L 0,-35"
             style="fill:none;stroke:#000000;stroke-width:15;stroke-linecap:round;stroke-linejoin:round;stroke-miterlimit:10;stroke-dasharray:none;stroke-opacity:1"
             id="path7232" /></g><g
           id="g7234"
           transform="translate(280.7915,381.7637)"><path
             d="m 0,0 h -33.338 c -4.535,0 -8.943,1.493 -12.544,4.249 l -24.212,18.527 c -5.3,4.057 -12.951,0.278 -12.951,-6.397 V 7.834 c 0,-0.978 -1.121,-1.531 -1.897,-0.938 l -20.751,15.88 c -5.301,4.057 -12.952,0.278 -12.952,-6.397 v -69.49 c 0,-25.575 20.732,-46.306 46.306,-46.306 H 8.338 c 18.687,0 33.836,15.148 33.836,33.836 v 23.407 C 42.174,-18.882 23.292,0 0,0"
             style="fill:#785252;fill-opacity:1;fill-rule:nonzero;stroke:none"
             id="path7236" /></g><g
           id="g7238"
           transform="translate(280.7915,381.7637)"><path
             d="m 0,0 h -33.338 c -4.535,0 -8.943,1.493 -12.544,4.249 l -24.212,18.527 c -5.3,4.057 -12.951,0.278 -12.951,-6.397 V 7.834 c 0,-0.978 -1.121,-1.531 -1.897,-0.938 l -20.751,15.88 c -5.301,4.057 -12.952,0.278 -12.952,-6.397 v -69.49 c 0,-25.575 20.732,-46.306 46.306,-46.306 H 8.338 c 18.687,0 33.836,15.148 33.836,33.836 v 23.407 C 42.174,-18.882 23.292,0 0,0 Z"
             style="fill:none;stroke:#000000;stroke-width:15;stroke-linecap:round;stroke-linejoin:round;stroke-miterlimit:10;stroke-dasharray:none;stroke-opacity:1"
             id="path7240" /></g><g
           id="g7242"
           transform="translate(233.603,164.498)"><path
             d="m 0,0 -12.799,-68.762 c -0.261,-1.402 0.173,-2.844 1.166,-3.87 L 5.796,-90.635 c 1.732,-1.788 4.599,-1.788 6.33,0 l 17.43,18.003 c 0.993,1.026 1.427,2.468 1.166,3.87 L 17.923,0 Z"
             style="fill:#4980ac;fill-opacity:1;fill-rule:nonzero;stroke:none"
             id="path7244" /></g><g
           id="g7246"
           transform="translate(233.603,164.498)"><path
             d="m 0,0 -12.799,-68.762 c -0.261,-1.402 0.173,-2.844 1.166,-3.87 L 5.796,-90.635 c 1.732,-1.788 4.599,-1.788 6.33,0 l 17.43,18.003 c 0.993,1.026 1.427,2.468 1.166,3.87 L 17.923,0 Z"
             style="fill:none;stroke:#000000;stroke-width:15;stroke-linecap:round;stroke-linejoin:round;stroke-miterlimit:10;stroke-dasharray:none;stroke-opacity:1"
             id="path7248" /></g><g
           id="g7250"
           transform="translate(218.3794,235.1387)"><path
             d="m 0,0 v -60.064 c 0,-2.664 1.232,-5.178 3.337,-6.811 l 15.567,-12.07 c 3.108,-2.409 7.454,-2.409 10.562,0 l 15.567,12.07 c 2.105,1.633 3.337,4.147 3.337,6.811 L 48.37,0 c 0,10.356 -8.396,18.753 -18.753,18.753 H 18.753 C 8.396,18.753 0,10.356 0,0"
             style="fill:#ffcdbe;fill-opacity:1;fill-rule:nonzero;stroke:none"
             id="path7252" /></g><g
           id="g7254"
           transform="translate(247.9966,253.8916)"><path
             d="m 0,0 h -10.864 c -10.357,0 -18.753,-8.396 -18.753,-18.753 v -43.738 c 6.456,-3.055 13.67,-4.77 21.286,-4.77 h 5.797 c 7.617,0 14.83,1.715 21.287,4.77 v 43.738 C 18.753,-8.396 10.357,0 0,0"
             style="fill:#ebae9d;fill-opacity:1;fill-rule:nonzero;stroke:none"
             id="path7256" /></g><g
           id="g7258"
           transform="translate(218.3794,235.1387)"><path
             d="m 0,0 v -60.064 c 0,-2.664 1.232,-5.178 3.337,-6.811 l 15.567,-12.07 c 3.108,-2.409 7.454,-2.409 10.562,0 l 15.567,12.07 c 2.105,1.633 3.337,4.147 3.337,6.811 L 48.37,0 c 0,10.356 -8.396,18.753 -18.753,18.753 H 18.753 C 8.396,18.753 0,10.356 0,0 Z"
             style="fill:none;stroke:#000000;stroke-width:15;stroke-linecap:round;stroke-linejoin:round;stroke-miterlimit:10;stroke-dasharray:none;stroke-opacity:1"
             id="path7260" /></g><g
           id="g7262"
           transform="translate(153.6689,282.3467)"><path
             d="m 0,0 c 0,-10.622 9.314,-19.234 20.803,-19.234 h 136.185 c 11.489,0 20.803,8.611 20.803,19.234 0,10.623 -9.314,19.234 -20.803,19.234 H 20.803 C 9.314,19.234 0,10.623 0,0"
             style="fill:#ffcdbe;fill-opacity:1;fill-rule:nonzero;stroke:none"
             id="path7264" /></g><g
           id="g7266"
           transform="translate(153.6689,282.3467)"><path
             d="m 0,0 c 0,-10.622 9.314,-19.234 20.803,-19.234 h 136.185 c 11.489,0 20.803,8.611 20.803,19.234 0,10.623 -9.314,19.234 -20.803,19.234 H 20.803 C 9.314,19.234 0,10.623 0,0 Z"
             style="fill:none;stroke:#000000;stroke-width:15;stroke-linecap:round;stroke-linejoin:round;stroke-miterlimit:10;stroke-dasharray:none;stroke-opacity:1"
             id="path7268" /></g><g
           id="g7270"
           transform="translate(189.8188,335.7256)"><path
             d="m 0,0 v -79.388 c 0,-27.529 22.317,-49.846 49.847,-49.846 h 5.798 c 27.529,0 49.846,22.317 49.846,49.846 v 48.761 c 0,18.85 -15.28,34.13 -34.129,34.13 H 3.503 C 1.568,3.503 0,1.935 0,0"
             style="fill:#ffcdbe;fill-opacity:1;fill-rule:nonzero;stroke:none"
             id="path7272" /></g><g
           id="g7274"
           transform="translate(189.8188,335.7256)"><path
             d="m 0,0 v -79.388 c 0,-27.529 22.317,-49.846 49.847,-49.846 h 5.798 c 27.529,0 49.846,22.317 49.846,49.846 v 48.761 c 0,18.85 -15.28,34.13 -34.129,34.13 H 3.503 C 1.568,3.503 0,1.935 0,0 Z"
             style="fill:none;stroke:#000000;stroke-width:15;stroke-linecap:round;stroke-linejoin:round;stroke-miterlimit:10;stroke-dasharray:none;stroke-opacity:1"
             id="path7276" /></g><g
           id="g7278"
           transform="translate(255.7852,244.6143)"><path
             d="m 0,0 c -3.181,-3.079 -7.466,-4.972 -12.191,-4.972 h -2.059 c -4.726,0 -9.011,1.893 -12.191,4.972"
             style="fill:none;stroke:#000000;stroke-width:15;stroke-linecap:round;stroke-linejoin:round;stroke-miterlimit:10;stroke-dasharray:none;stroke-opacity:1"
             id="path7280" /></g><g
           id="g7282"
           transform="translate(182.9072,31.4824)"><path
             d="M 0,0 V 81.479"
             style="fill:none;stroke:#000000;stroke-width:15;stroke-linecap:round;stroke-linejoin:round;stroke-miterlimit:10;stroke-dasharray:none;stroke-opacity:1"
             id="path7284" /></g><g
           id="g7286"
           transform="translate(377.9375,196.9326)"><path
             d="m 0,0 -6.504,-22.343 34.841,-10.143 6.503,22.343 C 37.641,-0.521 32.111,9.548 22.491,12.349 12.871,15.149 2.8,9.621 0,0"
             style="fill:#ffcdbe;fill-opacity:1;fill-rule:nonzero;stroke:none"
             id="path7288" /></g><g
           id="g7290"
           transform="translate(377.9375,196.9326)"><path
             d="m 0,0 -6.504,-22.343 34.841,-10.143 6.503,22.343 C 37.641,-0.521 32.111,9.548 22.491,12.349 12.871,15.149 2.8,9.621 0,0 Z"
             style="fill:none;stroke:#000000;stroke-width:15;stroke-linecap:round;stroke-linejoin:round;stroke-miterlimit:10;stroke-dasharray:none;stroke-opacity:1"
             id="path7292" /></g><g
           id="g7294"
           transform="translate(354.248,115.5615)"><path
             d="M 0,0 11.935,40.991"
             style="fill:none;stroke:#000000;stroke-width:15;stroke-linecap:round;stroke-linejoin:round;stroke-miterlimit:10;stroke-dasharray:none;stroke-opacity:1"
             id="path7296" /></g><g
           id="g7298"
           transform="translate(395.9971,480.5186)"><path
             d="m 0,0 c -36.221,0 -65.583,-29.363 -65.583,-65.584 0,-36.221 29.362,-65.583 65.583,-65.583 36.221,0 65.583,29.362 65.583,65.583 C 65.583,-29.363 36.221,0 0,0"
             style="fill:#f8e883;fill-opacity:1;fill-rule:nonzero;stroke:none"
             id="path7300" /></g><g
           id="g7302"
           transform="translate(429.9336,471.0645)"><path
             d="m 0,0 c 8.112,-10.915 12.915,-24.435 12.915,-39.078 0,-36.222 -29.363,-65.584 -65.584,-65.584 -12.422,0 -24.036,3.455 -33.936,9.453 11.952,-16.082 31.091,-26.504 52.668,-26.504 36.221,0 65.584,29.362 65.584,65.583 C 31.647,-32.331 18.969,-11.494 0,0"
             style="fill:#f3d332;fill-opacity:1;fill-rule:nonzero;stroke:none"
             id="path7304" /></g><g
           id="g7306"
           transform="translate(347.1104,458.6543)"><path
             d="m 0,0 c -10.383,-11.603 -16.697,-26.924 -16.697,-43.72 0,-36.22 29.363,-65.583 65.584,-65.583 36.22,0 65.583,29.363 65.583,65.583 0,36.221 -29.363,65.584 -65.583,65.584 -6.656,0 -13.08,-0.991 -19.133,-2.835"
             style="fill:none;stroke:#000000;stroke-width:15;stroke-linecap:round;stroke-linejoin:round;stroke-miterlimit:10;stroke-dasharray:none;stroke-opacity:1"
             id="path7308" /></g><g
           id="g7310"
           transform="translate(377.2646,439.9229)"><path
             d="m 0,0 v -49.977 c 0,-3.282 3.601,-5.293 6.396,-3.571 L 46.95,-28.56 c 2.659,1.639 2.659,5.504 0,7.143 L 6.396,3.571 C 3.601,5.294 0,3.283 0,0"
             style="fill:#df646e;fill-opacity:1;fill-rule:nonzero;stroke:none"
             id="path7312" /></g><g
           id="g7314"
           transform="translate(377.2646,439.9229)"><path
             d="m 0,0 v -49.977 c 0,-3.282 3.601,-5.293 6.396,-3.571 L 46.95,-28.56 c 2.659,1.639 2.659,5.504 0,7.143 L 6.396,3.571 C 3.601,5.294 0,3.283 0,0 Z"
             style="fill:none;stroke:#000000;stroke-width:15;stroke-linecap:round;stroke-linejoin:round;stroke-miterlimit:10;stroke-dasharray:none;stroke-opacity:1"
             id="path7316" /></g><g
           id="g7318"
           transform="translate(82.8867,269.2949)"><path
             d="M 0,0 V 32.286"
             style="fill:none;stroke:#000000;stroke-width:15;stroke-linecap:round;stroke-linejoin:round;stroke-miterlimit:10;stroke-dasharray:none;stroke-opacity:1"
             id="path7320" /></g></g></g></g></svg>
